<svg width="256" height="256" xmlns="http://www.w3.org/2000/svg">

 <g>
  <title>background</title>
  <rect fill="none" id="canvas_background" height="256" width="256" y="0" x="0"/>
 </g>
 <g>
  <title>Layer 1</title>
  <ellipse ry="120" rx="120" id="svg_2" cy="128" cx="128" fill="#005fff"/>
  <path stroke="null" fill="#ffff00" stroke-width="2" id="svg_1" d="m158.756118,107.158373c0,16.817917 -14.306546,30.462325 -31.95451,30.462325c-17.650477,0 -31.95451,-13.644408 -31.95451,-30.462325c0,-16.822729 14.306546,-30.462325 31.95451,-30.462325c17.651733,-0.001203 31.95451,13.638393 31.95451,30.462325m33.154155,0c0,-33.649068 -28.611836,-60.925853 -63.910277,-60.925853c-35.295929,0 -63.910277,27.276786 -63.910277,60.925853c0,14.794474 5.537207,28.359484 14.738669,38.910983l49.226879,67.708358l49.946666,-68.69602c1.793814,-2.140134 3.436887,-4.395756 4.919171,-6.766866l0.504981,-0.690521l-0.082907,0c5.439226,-8.96715 8.567095,-19.363462 8.567095,-30.465934"/>
 </g>
</svg>