<?xml version="1.0" standalone="no"?>
<!DOCTYPE svg PUBLIC "-//W3C//DTD SVG 20010904//EN"
 "http://www.w3.org/TR/2001/REC-SVG-20010904/DTD/svg10.dtd">
<svg version="1.0" xmlns="http://www.w3.org/2000/svg"
 width="700.000000pt" height="700.000000pt" viewBox="0 0 700.000000 700.000000"
 preserveAspectRatio="xMidYMid meet">
<metadata>
Created by potrace 1.11, written by Peter Selinger 2001-2013
</metadata>
<g transform="translate(0.000000,700.000000) scale(0.100000,-0.100000)"
fill="#000000" stroke="none">
<path d="M3270 6774 c-603 -52 -1120 -230 -1596 -550 -724 -487 -1225 -1237
-1393 -2090 -46 -231 -55 -338 -55 -634 0 -296 9 -403 55 -634 168 -853 669
-1603 1393 -2090 427 -287 878 -456 1417 -532 176 -25 642 -25 818 0 710 100
1324 387 1818 850 578 540 917 1199 1029 1997 25 176 25 642 0 818 -112 798
-451 1457 -1029 1997 -492 462 -1114 753 -1812 849 -105 15 -546 28 -645 19z
m455 -1055 c740 -87 1355 -640 1490 -1340 38 -197 38 -438 -1 -626 -39 -195
-143 -439 -251 -591 -185 -258 -1455 -1997 -1461 -1999 -4 -1 -299 401 -657
894 -357 493 -682 937 -721 987 -97 123 -145 200 -208 331 -270 555 -195 1211
193 1700 162 204 392 383 629 492 311 142 641 193 987 152z"/>
<path d="M3290 4885 c-227 -47 -432 -182 -559 -368 -155 -228 -178 -540 -57
-792 107 -223 313 -389 571 -462 85 -24 297 -28 395 -9 179 37 334 119 461
246 321 320 319 826 -6 1145 -130 128 -302 217 -475 244 -87 14 -250 12 -330
-4z"/>
</g>
</svg>
